<svg id="visual" viewBox="0 0 900 600" width="900" height="600" xmlns="http://www.w3.org/2000/svg"
    xmlns:xlink="http://www.w3.org/1999/xlink" version="1.1">
    <path
        d="M0 466L21.5 466.2C43 466.3 86 466.7 128.8 464C171.7 461.3 214.3 455.7 257.2 462.2C300 468.7 343 487.3 385.8 498.5C428.7 509.7 471.3 513.3 514.2 511.5C557 509.7 600 502.3 642.8 492.2C685.7 482 728.3 469 771.2 471.2C814 473.3 857 490.7 878.5 499.3L900 508L900 601L878.5 601C857 601 814 601 771.2 601C728.3 601 685.7 601 642.8 601C600 601 557 601 514.2 601C471.3 601 428.7 601 385.8 601C343 601 300 601 257.2 601C214.3 601 171.7 601 128.8 601C86 601 43 601 21.5 601L0 601Z"
        fill="rgba(0,15,131,0.85)"></path>
    <path
        d="M0 516L21.5 520.3C43 524.7 86 533.3 128.8 530.7C171.7 528 214.3 514 257.2 510.5C300 507 343 514 385.8 522.5C428.7 531 471.3 541 514.2 535C557 529 600 507 642.8 500.2C685.7 493.3 728.3 501.7 771.2 507.2C814 512.7 857 515.3 878.5 516.7L900 518L900 601L878.5 601C857 601 814 601 771.2 601C728.3 601 685.7 601 642.8 601C600 601 557 601 514.2 601C471.3 601 428.7 601 385.8 601C343 601 300 601 257.2 601C214.3 601 171.7 601 128.8 601C86 601 43 601 21.5 601L0 601Z"
        fill="rgba(0,15,89,0.9)"></path>
    <path
        d="M0 544L21.5 545.3C43 546.7 86 549.3 128.8 555.2C171.7 561 214.3 570 257.2 573.2C300 576.3 343 573.7 385.8 569C428.7 564.3 471.3 557.7 514.2 549.8C557 542 600 533 642.8 536.8C685.7 540.7 728.3 557.3 771.2 561.7C814 566 857 558 878.5 554L900 550L900 601L878.5 601C857 601 814 601 771.2 601C728.3 601 685.7 601 642.8 601C600 601 557 601 514.2 601C471.3 601 428.7 601 385.8 601C343 601 300 601 257.2 601C214.3 601 171.7 601 128.8 601C86 601 43 601 21.5 601L0 601Z"
        fill="#000030"></path>
</svg>